<?xml version="1.0" encoding="UTF-8" standalone="no"?>
<!-- Generator: Adobe Illustrator 22.1.0, SVG Export Plug-In . SVG Version: 6.00 Build 0)  -->

<svg
   xmlns:dc="http://purl.org/dc/elements/1.1/"
   xmlns:cc="http://creativecommons.org/ns#"
   xmlns:rdf="http://www.w3.org/1999/02/22-rdf-syntax-ns#"
   xmlns:svg="http://www.w3.org/2000/svg"
   xmlns="http://www.w3.org/2000/svg"
   xmlns:sodipodi="http://sodipodi.sourceforge.net/DTD/sodipodi-0.dtd"
   xmlns:inkscape="http://www.inkscape.org/namespaces/inkscape"
   version="1.1"
   id="logo"
   x="0px"
   y="0px"
   viewBox="0 0 366 200"
   style="enable-background:new 0 0 366 200;"
   xml:space="preserve"
   inkscape:version="0.91 r13725"
   sodipodi:docname="logo_SN.svg"><metadata
     id="metadata22"><rdf:RDF><cc:Work
         rdf:about=""><dc:format>image/svg+xml</dc:format><dc:type
           rdf:resource="http://purl.org/dc/dcmitype/StillImage" /></cc:Work></rdf:RDF></metadata><defs
     id="defs20" /><sodipodi:namedview
     pagecolor="#ffffff"
     bordercolor="#666666"
     borderopacity="1"
     objecttolerance="10"
     gridtolerance="10"
     guidetolerance="10"
     inkscape:pageopacity="0"
     inkscape:pageshadow="2"
     inkscape:window-width="924"
     inkscape:window-height="688"
     id="namedview18"
     showgrid="false"
     inkscape:zoom="0.82513661"
     inkscape:cx="97.559603"
     inkscape:cy="100"
     inkscape:window-x="242"
     inkscape:window-y="0"
     inkscape:window-maximized="0"
     inkscape:current-layer="logo" /><style
     type="text/css"
     id="style3">
	.st0{fill:#F12639;}
	.st1{enable-background:new    ;}
	.st2{fill:#FFFFFF;}
</style><rect
     id="logo_bg"
     class="st0"
     width="366"
     height="200" /><g
     class="st1"
     id="g6"
     transform="translate(0,-16)"
     style="enable-background:new"><path
       class="st2"
       d="m 104.1,130.5 c -2.8,-2.6 -4.2,-5.9 -4.2,-9.7 l 2.8,0 c 0,3.1 1.1,5.7 3.4,7.9 2.3,2.2 5,3.3 8.2,3.3 3.5,0 6.5,-0.9 9,-2.8 2.5,-1.9 3.7,-4.1 3.7,-6.7 0,-2.3 -1.1,-4.2 -3.3,-5.7 -2.1,-1.5 -5,-2.5 -8.6,-2.8 -4.4,-0.4 -7.9,-1.6 -10.6,-3.8 -2.6,-2.1 -4,-4.8 -4,-7.9 0,-3.1 1.3,-5.7 4,-7.9 2.7,-2.2 5.9,-3.3 9.7,-3.3 4.1,0 7.6,1.1 10.5,3.4 2.9,2.3 4.3,5 4.3,8.2 l -2.8,0 c 0,-2.5 -1.2,-4.6 -3.5,-6.3 -2.3,-1.8 -5.1,-2.6 -8.5,-2.6 -3,0 -5.6,0.8 -7.8,2.5 -2.1,1.6 -3.2,3.6 -3.2,6 0,2.3 1.1,4.3 3.3,5.8 2.3,1.6 5.3,2.5 9,2.9 4.3,0.4 7.7,1.6 10.3,3.7 2.6,2.1 3.8,4.7 3.8,7.7 0,3.3 -1.5,6.2 -4.5,8.6 -3,2.4 -6.7,3.5 -10.9,3.5 -4,0.1 -7.3,-1.3 -10.1,-4 z"
       id="path8"
       inkscape:connector-curvature="0"
       style="fill:#ffffff" /><path
       class="st2"
       d="m 135.9,133.5 0,-41.2 18.6,0 c 2.7,0 5,1.1 6.8,3.3 1.9,2.2 2.9,4.8 2.9,7.9 0,3.2 -1,5.9 -2.9,8.2 -1.9,2.3 -4.1,3.4 -6.8,3.4 l -15.9,0 0,18.5 -2.7,0 z M 154,112.4 c 2,0 3.8,-0.8 5.2,-2.5 1.4,-1.6 2.2,-3.6 2.2,-6 0,-2.5 -0.7,-4.6 -2.2,-6.3 C 157.8,95.9 156,95 154,95 l -15.4,0 0,17.4 15.4,0 z"
       id="path10"
       inkscape:connector-curvature="0"
       style="fill:#ffffff" /><path
       class="st2"
       d="m 181.8,133.5 0,-17.9 -15.9,-23.3 4,0 13.4,20.1 13,-20.1 4,0 -15.3,23.3 0,17.9 -3.2,0 z"
       id="path12"
       inkscape:connector-curvature="0"
       style="fill:#ffffff" /><path
       class="st2"
       d="m 205,133.5 0,-41.2 19.7,0 c 2.8,0 5.2,1.1 7.2,3.2 2,2.1 3,4.6 3,7.7 0,2.6 -0.6,4.9 -1.8,6.9 -1.3,1.9 -2.8,3.1 -4.7,3.4 1.7,0.5 3.1,1.9 4.2,4.4 1.1,2.5 1.6,5.4 1.6,8.9 0,1.9 0,3.4 0.1,4.4 0.1,1.2 0.3,2 0.6,2.4 l -2.8,0 c -0.5,-0.6 -0.8,-1.6 -0.9,-3.1 l -0.2,-5.9 c 0,-2.8 -0.7,-5.2 -2,-7.2 -1.3,-1.9 -2.9,-2.9 -4.8,-2.9 l -16.4,0 0,19.1 -2.8,0 z m 19.2,-21.6 c 2.2,0 4.1,-0.8 5.6,-2.5 1.5,-1.6 2.3,-3.6 2.3,-6 0,-2.3 -0.8,-4.3 -2.3,-6 -1.6,-1.6 -3.5,-2.4 -5.6,-2.4 l -16.4,0 0,16.9 16.4,0 z"
       id="path14"
       inkscape:connector-curvature="0"
       style="fill:#ffffff" /><path
       class="st2"
       d="m 242.2,133.5 0,-41.2 26.9,0 0,2.7 -24.1,0 0,15.9 22.1,0 0,2.6 -22.1,0 0,17.5 24.1,0 0,2.6 -26.9,0 z"
       id="path16"
       inkscape:connector-curvature="0"
       style="fill:#ffffff" /></g></svg>